<!-- Generated by IcoMoon.io -->
<svg version="1.1" xmlns="http://www.w3.org/2000/svg" width="24" height="32" viewBox="0 0 24 32">
<title>adult</title>
<path d="M0 31.424v-9.248q0-3.296 1.92-5.664t5.024-2.4h10.56q3.232 0.064 5.056 2.432t1.824 5.632v9.248q0 0.576-0.576 0.576h-3.36q-0.512 0-0.512-0.576v-8.064q-0.192-0.864-0.864-0.768t-0.704 0.768v8.064q-0.064 0.576-0.608 0.576h-11.264q-0.544 0-0.544-0.576v-8.064q-0.128-0.864-0.832-0.768t-0.736 0.768v8.064q0 0.576-0.576 0.576h-3.232q-0.576 0-0.576-0.576zM5.952 6.368q0-2.624 1.888-4.48t4.48-1.888q2.752 0.128 4.544 1.92t1.888 4.448q-0.064 2.688-1.952 4.576t-4.48 1.856q-2.688-0.064-4.544-1.92t-1.824-4.512z"></path>
</svg>
