<!-- Generated by IcoMoon.io -->
<svg version="1.1" xmlns="http://www.w3.org/2000/svg" width="27" height="32" viewBox="0 0 27 32">
<title>hourglass</title>
<path d="M26.848 28.576q0.256 0 0.416 0.16t0.16 0.416v2.272q0 0.256-0.16 0.416t-0.416 0.16h-26.272q-0.256 0-0.416-0.16t-0.16-0.416v-2.272q0-0.256 0.16-0.416t0.416-0.16h26.272zM2.336 27.424q0.032-0.992 0.288-1.92t0.512-1.696 0.832-1.536 0.96-1.376 1.152-1.216 1.184-1.088 1.248-0.992 1.184-0.832 1.152-0.768q-0.768-0.512-1.152-0.768t-1.184-0.864-1.248-0.96-1.184-1.088-1.152-1.248-0.96-1.344-0.832-1.536-0.512-1.696-0.288-1.92h22.784q-0.064 0.96-0.288 1.92t-0.544 1.696-0.832 1.536-0.96 1.344-1.152 1.248-1.152 1.088-1.28 0.96-1.184 0.864-1.152 0.768q0.768 0.512 1.152 0.768t1.184 0.832 1.28 0.992 1.152 1.088 1.152 1.216 0.96 1.376 0.832 1.536 0.544 1.696 0.288 1.92h-22.784zM26.848 0q0.256 0 0.416 0.16t0.16 0.416v2.272q0 0.256-0.16 0.416t-0.416 0.16h-26.272q-0.256 0-0.416-0.16t-0.16-0.416v-2.272q0-0.256 0.16-0.416t0.416-0.16h26.272z"></path>
</svg>
