<svg viewBox="0 0 25 25" width="20" height="20" xmlns="http://www.w3.org/2000/svg" version="1.1">
    <path fill="#2AC04B" id="svg_1" d="m11.14807,19.09422l10.00992,-10.1489q0.32102,-0.29589 0.32102,-0.73972t-0.32102,-0.73972l-1.66346,-1.68655q-0.32102,-0.32547 -0.72959,-0.32547t-0.72959,0.32547l-7.61688,7.72263l-3.44365,-3.49146q-0.29183,-0.32547 -0.72959,-0.32547t-0.72959,0.32547l-1.66346,1.68655q-0.29183,0.29589 -0.29183,0.73972t0.29183,0.73972l5.83669,5.91772q0.32102,0.29589 0.72959,0.29589t0.72959,-0.29589zm13.86213,-14.58719l0,15.8595q0,1.95285 -1.37162,3.34351t-3.32691,1.42025l-15.61314,0q-1.95529,0 -3.32691,-1.42025t-1.37162,-3.34351l0,-15.8595q0,-1.95285 1.37162,-3.34351t3.32691,-1.42025l15.61314,0q1.95529,0 3.32691,1.42025t1.37162,3.34351z"/>
</svg>
