<svg xmlns="http://www.w3.org/2000/svg">
  <symbol id="cross" viewBox="0 0 16 16">
    <path d="M7.29289322,8 L3.14644661,3.85355339 C2.95118446,3.65829124 2.95118446,3.34170876 3.14644661,3.14644661 C3.34170876,2.95118446 3.65829124,2.95118446 3.85355339,3.14644661 L8,7.29289322 L12.1464466,3.14644661 C12.3417088,2.95118446 12.6582912,2.95118446 12.8535534,3.14644661 C13.0488155,3.34170876 13.0488155,3.65829124 12.8535534,3.85355339 L8.70710678,8 L12.8535534,12.1464466 C13.0488155,12.3417088 13.0488155,12.6582912 12.8535534,12.8535534 C12.6582912,13.0488155 12.3417088,13.0488155 12.1464466,12.8535534 L8,8.70710678 L3.85355339,12.8535534 C3.65829124,13.0488155 3.34170876,13.0488155 3.14644661,12.8535534 C2.95118446,12.6582912 2.95118446,12.3417088 3.14644661,12.1464466 L7.29289322,8 Z" />
  </symbol>

  <symbol id="down-arrow" viewBox="0 0 16 16">
    <path fill-rule="evenodd" clip-rule="evenodd" d="M1.95748 4.98214C2.24349 4.68252 2.71823 4.67148 3.01786 4.95748L7.82738 9.54839C7.92399 9.64061 8.07601 9.64061 8.17262 9.54839L12.9821 4.95748C13.2818 4.67148 13.7565 4.68252 14.0425 4.98214C14.3285 5.28177 14.3175 5.75651 14.0179 6.04252L9.20833 10.6334C8.53209 11.2789 7.46791 11.2789 6.79167 10.6334L1.98214 6.04252C1.68252 5.75651 1.67148 5.28177 1.95748 4.98214Z" />
  </symbol>

  <symbol id="link" viewBox="0 0 16 16">
    <path d="M5,4.77179451 C5,5.04793689 4.77614237,5.27179451 4.5,5.27179451 C4.22385763,5.27179451 4,5.04793689 4,4.77179451 L4,1.49883476 C4,-0.180238185 5.58511246,-1.50116524 7.5,-1.50116524 C9.41488754,-1.50116524 11,-0.180238185 11,1.49883476 L11,6.49883476 C11,8.17790771 9.41488754,9.49883476 7.5,9.49883476 C7.22385763,9.49883476 7,9.27497714 7,8.99883476 C7,8.72269239 7.22385763,8.49883476 7.5,8.49883476 C8.89882096,8.49883476 10,7.58118556 10,6.49883476 L10,1.49883476 C10,0.416483965 8.89882096,-0.501165235 7.5,-0.501165235 C6.10117904,-0.501165235 5,0.416483965 5,1.49883476 L5,4.77179451 Z M10,10.225875 C10,9.94973264 10.2238576,9.72587502 10.5,9.72587502 C10.7761424,9.72587502 11,9.94973264 11,10.225875 L11,13.4988348 C11,15.1779077 9.41488754,16.4988348 7.5,16.4988348 C5.58511246,16.4988348 4,15.1779077 4,13.4988348 L4,8.49883476 C4,6.81976182 5.58511246,5.49883476 7.5,5.49883476 C7.77614237,5.49883476 8,5.72269239 8,5.99883476 C8,6.27497714 7.77614237,6.49883476 7.5,6.49883476 C6.10117904,6.49883476 5,7.41648397 5,8.49883476 L5,13.4988348 C5,14.5811856 6.10117904,15.4988348 7.5,15.4988348 C8.89882096,15.4988348 10,14.5811856 10,13.4988348 L10,10.225875 Z" transform="rotate(45 7.5 7.499)"/>
  </symbol>

  <symbol id="document" viewBox="0 0 16 16">
    <path d="M10.8,0 C11.074,0 11.337,0.113 11.526,0.312 L14.726,3.74 C14.902,3.926 15,4.173 15,4.429 L15,15 C15,15.552 14.552,16 14,16 L2,16 C1.448,16 1,15.552 1,15 L1,1 C1,0.448 1.448,0 2,0 L10.8,0 Z M14,5 L10.5,5 C10.224,5 10,4.776 10,4.5 L10,1 L2,1 L2,15 L14,15 L14,5 Z M5.5,12 C5.22385763,12 5,11.7761424 5,11.5 C5,11.2238576 5.22385763,11 5.5,11 L10.5,11 C10.7761424,11 11,11.2238576 11,11.5 C11,11.7761424 10.7761424,12 10.5,12 L5.5,12 Z M5.5,9 C5.22385763,9 5,8.77614237 5,8.5 C5,8.22385763 5.22385763,8 5.5,8 L10.5,8 C10.7761424,8 11,8.22385763 11,8.5 C11,8.77614237 10.7761424,9 10.5,9 L5.5,9 Z" />
  </symbol>

  <symbol id="folder-open" viewBox="0 0 16 16">
    <path d="M1 9.5l.826-3.717A1 1 0 012.802 5H13V4H7.125A1.125 1.125 0 016 2.875V2H1v7.5zm.247 3.5h11.95l1.556-7H2.803l-1.556 7zM13 14H1a1 1 0 01-1-1V2a1 1 0 011-1h5.25a.75.75 0 01.75.75v1.125c0 .069.056.125.125.125H13a1 1 0 011 1v1h.753a1 1 0 01.977 1.217l-1.556 7a1 1 0 01-.976.783H13z" />
  </symbol>

</svg>
